<svg width="30" height="30" viewBox="0 0 256 229" fill="none" xmlns="http://www.w3.org/2000/svg">
<g clip-path="url(#clip0_1161_252)">
<path d="M19.354 196.034L30.644 215.534C32.99 219.64 36.362 222.866 40.321 225.212C51.661 210.818 59.553 199.772 64.001 192.075C68.514 184.264 74.061 172.045 80.642 155.42C62.906 153.085 49.466 151.918 40.322 151.918C31.545 151.918 18.105 153.085 0 155.42C0 159.965 1.173 164.51 3.519 168.616L19.354 196.034V196.034Z" fill="#0066DA"/>
<path d="M215.681 225.212C219.641 222.866 223.013 219.64 225.358 215.535L230.05 207.471L252.484 168.616C254.786 164.599 255.999 160.05 256.002 155.42C237.792 153.085 224.377 151.918 215.755 151.918C206.489 151.918 193.073 153.085 175.507 155.42C182.01 172.136 187.484 184.355 191.929 192.075C196.412 199.864 204.329 210.909 215.681 225.212V225.212Z" fill="#EA4335"/>
<path d="M128.001 73.311C141.121 57.466 150.163 45.247 155.126 36.656C159.123 29.738 163.522 18.692 168.322 3.519C164.363 1.173 159.818 0 155.126 0H100.876C96.1842 0 91.6402 1.32 87.6802 3.519C93.7862 20.921 98.9682 33.306 103.224 40.673C107.928 48.815 116.187 59.694 128.001 73.311Z" fill="#00832D"/>
<path d="M175.36 155.42H80.6418L40.3218 225.212C44.2798 227.558 48.8248 228.731 53.5168 228.731H202.485C207.177 228.731 211.723 227.411 215.681 225.211L175.361 155.42H175.36Z" fill="#2684FC"/>
<path d="M128.001 73.3105L87.681 3.51953C83.721 5.86553 80.349 9.09053 78.003 13.1965L3.519 142.224C1.21613 146.24 0.00304247 150.789 0 155.42H80.642L128.002 73.3105H128.001Z" fill="#00AC47"/>
<path d="M215.242 77.7096L177.999 13.1956C175.654 9.08955 172.281 5.86455 168.322 3.51855L128.002 73.3106L175.36 155.42H255.856C255.856 150.874 254.683 146.33 252.337 142.224L215.242 77.7096Z" fill="#FFBA00"/>
</g>
<defs>
<clipPath id="clip0_1161_252">
<rect width="256" height="229" fill="white"/>
</clipPath>
</defs>
</svg>
