<svg width="17" height="22" viewBox="0 0 17 22" fill="none" xmlns="http://www.w3.org/2000/svg">
<path d="M1 3V19C1 19.5304 1.19754 20.0391 1.54917 20.4142C1.90081 20.7893 2.37772 21 2.875 21H14.125C14.6223 21 15.0992 20.7893 15.4508 20.4142C15.8025 20.0391 16 19.5304 16 19V7.342C16 7.07556 15.95 6.81181 15.8531 6.56624C15.7562 6.32068 15.6143 6.09824 15.4356 5.912L11.2731 1.57C10.9228 1.20466 10.4524 1.00007 9.9625 1H2.875C2.37772 1 1.90081 1.21071 1.54917 1.58579C1.19754 1.96086 1 2.46957 1 3V3Z" fill="#E9E9E9" stroke="#442478" stroke-linecap="round" stroke-linejoin="round"/>
<g clip-path="url(#clip0_0_1)">
<path d="M10.5464 7.59452L10.2818 8.05156C10.2268 8.14779 10.1478 8.2234 10.055 8.27839C9.78919 7.94103 9.60422 7.68213 9.49997 7.50173C9.39419 7.31866 9.26418 7.03228 9.10994 6.64263C9.52563 6.5879 9.84063 6.56055 10.0549 6.56055C10.2607 6.56055 10.5757 6.5879 11 6.64263C11 6.74915 10.9725 6.85567 10.9175 6.95191L10.5464 7.59452V7.59452Z" fill="#0066DA"/>
<path d="M5.94489 8.27839C5.85208 8.2234 5.77305 8.14779 5.71808 8.05158L5.60811 7.86258L5.08231 6.95191C5.02835 6.85776 4.99992 6.75114 4.99986 6.64263C5.42666 6.5879 5.74108 6.56055 5.94316 6.56055C6.16033 6.56055 6.47477 6.5879 6.88647 6.64263C6.73406 7.03441 6.60576 7.32079 6.50158 7.50173C6.39651 7.68429 6.21095 7.94316 5.94489 8.27839V8.27839Z" fill="#EA4335"/>
<path d="M7.99992 4.71824C7.69241 4.34687 7.48049 4.06048 7.36417 3.85913C7.27049 3.69699 7.16739 3.4381 7.05489 3.08248C7.14768 3.02749 7.2542 3 7.36417 3H8.63566C8.74563 3 8.85213 3.03094 8.94495 3.08248C8.80184 3.49034 8.68038 3.78061 8.58063 3.95328C8.47038 4.14411 8.27681 4.39909 7.99992 4.71824Z" fill="#00832D"/>
<path d="M6.88996 6.6427H9.10993L10.0549 8.27846C9.96217 8.33345 9.85564 8.36094 9.74567 8.36094H6.25421C6.14424 8.36094 6.03769 8.33 5.94493 8.27844L6.88993 6.6427H6.88996Z" fill="#2684FC"/>
<path d="M7.99996 4.71826L8.94496 3.08252C9.03778 3.1375 9.11681 3.21309 9.17179 3.30933L10.9175 6.33342C10.9715 6.42756 10.9999 6.53418 11 6.6427H9.10994L7.99993 4.71826H7.99996Z" fill="#00AC47"/>
<path d="M5.95518 4.82138L6.82807 3.30933C6.88303 3.21309 6.96208 3.1375 7.05487 3.08252L7.99988 4.71828L6.88992 6.64272H5.00328C5.00328 6.53618 5.03077 6.42967 5.08576 6.33344L5.95518 4.82138Z" fill="#FFBA00"/>
</g>
<path d="M8.3431 15.657C8.16108 15.475 7.91426 15.3728 7.6569 15.3728C7.39954 15.3728 7.15272 15.475 6.9707 15.657L6.28428 16.3432C6.10226 16.5252 6 16.772 6 17.0295C6 17.2869 6.10226 17.5338 6.28428 17.7158C6.4663 17.8978 6.71317 18.0001 6.97059 18.0001C7.22801 18.0001 7.47488 17.8978 7.6569 17.7158L8 17.3727" stroke="#442478" stroke-width="0.44443" stroke-linecap="round" stroke-linejoin="round"/>
<path d="M7.65686 16.3431C7.83888 16.525 8.0857 16.6272 8.34306 16.6272C8.60042 16.6272 8.84724 16.525 9.02926 16.3431L9.71568 15.6569C9.8977 15.4749 9.99996 15.228 9.99996 14.9706C9.99996 14.7132 9.8977 14.4663 9.71568 14.2843C9.53366 14.1023 9.28679 14 9.02937 14C8.77195 14 8.52508 14.1023 8.34306 14.2843L7.99996 14.6274" stroke="#442478" stroke-width="0.44443" stroke-linecap="round" stroke-linejoin="round"/>
<path d="M8.07071 9.92929C8.03166 9.89024 7.96834 9.89024 7.92929 9.92929L7.29289 10.5657C7.25384 10.6047 7.25384 10.6681 7.29289 10.7071C7.33195 10.7462 7.39526 10.7462 7.43431 10.7071L8 10.1414L8.56569 10.7071C8.60474 10.7462 8.66805 10.7462 8.70711 10.7071C8.74616 10.6681 8.74616 10.6047 8.70711 10.5657L8.07071 9.92929ZM8.1 12V10H7.9V12H8.1Z" fill="#442478" fill-opacity="0.6"/>
<defs>
<clipPath id="clip0_0_1">
<rect width="6.00004" height="5.36722" fill="white" transform="matrix(-1 0 0 1 11 3)"/>
</clipPath>
</defs>
</svg>
